<svg width="36" height="36" xmlns="http://www.w3.org/2000/svg">

 <g>
  <title>Layer 1</title>
  <path id="svg_1" d="m21.533,18.002l12.235,-12.234c0.976,-0.976 0.976,-2.559 0,-3.535c-0.977,-0.977 -2.559,-0.977 -3.535,0l-12.235,12.234l-12.234,-12.234c-0.976,-0.977 -2.56,-0.977 -3.535,0c-0.977,0.976 -0.977,2.559 0,3.535l12.234,12.234l-12.262,12.263c-0.977,0.977 -0.977,2.559 0,3.535c0.488,0.488 1.128,0.732 1.768,0.732s1.28,-0.244 1.768,-0.732l12.262,-12.263l12.234,12.234c0.488,0.488 1.128,0.732 1.768,0.732c0.64,0 1.279,-0.244 1.768,-0.732c0.976,-0.977 0.976,-2.559 0,-3.535l-12.236,-12.234z" fill="#ffffff"/>
 </g>
</svg>